<svg id="Warstwa_1" data-name="Warstwa 1" xmlns="http://www.w3.org/2000/svg" viewBox="0 0 212.64 743.25"><defs><style>.cls-1{fill:#231f20;}</style></defs><title>beer</title><path class="cls-1" d="M160.64,653.94c.46-.68.54-1.68,1.64-1.85,1.2.87.86,2.17.76,3.32-.56,6.54-1.17,13.08-1.79,19.62-.14,1.44-.65,2.86,0,4.29.24.64.7.6,1.21.39l1.6.1c.41.06.73,0,.81-.51l.61-.65c.67.6.94,1.86,2.22,1.43,1.12-.37.7-1.38.8-2.17.38-2.89.77-5.77.87-8.7a46.5,46.5,0,0,1,1-8.66c.54-2.36.15-4.53,0-6.8-.88,4.31-1.41,8.63-2,12.94-.44,3.13-1,6.25-1.44,9.38-.12.84-.6.92-1.27.8,1.8-10.81,2.78-21.77,5.74-32.92,1.6,1.5,1.2,2.83,1.09,4-.47,4.95-1,9.9-1.51,14.85-.08.84-.09,1.69-.13,2.53-.58,1.44-.2,2.91-.18,4.38-1.41,3.31-1,6.87-1.32,10.32.88,1,1.76,1.21,2.64,0a24.07,24.07,0,0,0,.15-5.16,4.18,4.18,0,0,0,.69.2,16.49,16.49,0,0,0,0,2.9c.17.93-.8,2.58.78,2.66,1.31.07,1.07-1.65,1.29-2.61,1.1-5,.55-10.11.37-15.17a6.11,6.11,0,0,0-.84-3.35,14,14,0,0,0-.94,5.71l-1.29.16c.45-2.5.34-5.08,1-7.56.39-1.38,1.05-2.14,2.54-2a4.09,4.09,0,0,0,.74,2.16l.19,3c-.29,3.27.35,6.5.42,9.76.2,9.11.32,18.23.53,27.34,0,.89-.35,2,.93,2.85.31-2.68.65-5.19.89-7.7,1-9.92,2-19.82,2.79-29.75.35-4.47,1-8.94.79-13.46-.05-1.1,0-2.3-1.65-2.1.22-.44.41-.89.64-1.31s.78-1,1.45-.84c.48.14.65.7.68,1.19a23.83,23.83,0,0,1,.06,3.27q-.81,9.45-1.7,18.89c-1.29,13.43-2.22,26.9-3.85,40.3a12.38,12.38,0,0,0,.37,5.76c1.43-2.49,1.07-5.06,1.58-7.43.2-.89-.31-2,.93-2.53a.37.37,0,0,0,.37.36c-.32,3.39-.6,6.77-1,10.15-.12,1.07.21,1.52,1.28,1.69,1.85.29,2.26,0,2.5-2,.65-5.46.27-10.94.34-16.4a121.63,121.63,0,0,0-.11-13.23c-.07-1.82-1.18-1.12-1.85-1.52.85-1.72.74-3.83,2.14-5.33,1.39.83,1.2,2.27,1.31,3.54.18,2.28.23,4.57.34,7,.7-3.29.7-3.29,3.38-2.53.27,3.88.48,7.76.84,11.63.11,1.13-.3,2.47,1,3.54,1.15-2,1.1-4.15,1.45-6.2,1.49-8.75,2.28-17.63,4.73-26.21.2-.68.05-1.57.94-1.77,2.38-.53,2-2.43,2.05-4.06q.16-12.42.22-24.83c0-9.86,1.2-19.67,1.39-29.52.22-11.66.7-23.32.45-35-.16-7.17.53-14.37.2-21.53-.42-9.23.44-18.44-.13-27.68-.44-7.12.24-14.31.3-21.47.05-5.46-.12-10.93-.26-16.39-.17-6.31-.7-12.62-.26-19,.25-3.5-.13-7.05-.16-10.57-.07-8.66.95-17.25,1.75-25.84.09-1,0-1.94.07-2.91.54-1.75.36-3.69,1.66-5.3a355.25,355.25,0,0,0-1.95,56.53,58.59,58.59,0,0,0,.9-8.31c.2-6.92.57-13.83.91-20.74a16.41,16.41,0,0,1,.47-2.86.72.72,0,0,1,1.08-.57,1.11,1.11,0,0,1,.57.82c-.11,1.21-.45,2.39-.48,3.59,0,1-.92,2.8.71,3,2.31.25,1.36-1.83,1.27-2.9-.69-8.47-1.34-16.94-2.33-25.38-.37-3.25-.18-6.56-1.12-9.74-.25-.83-.3-1.71-1.36-1.92a3.92,3.92,0,0,0,.34-3.05.62.62,0,0,0,0-.68c.54-6.21-.22-12.4-.26-18.61-.08-14.26-1.52-28.44-2.68-42.64-.62-7.63-1.26-15.27-1.82-22.92a38.06,38.06,0,0,1,.34-10.16,8.68,8.68,0,0,0-.3-3.6A41.26,41.26,0,0,0,195,300a119.51,119.51,0,0,1-9.18-14.91c-1.64-3.37-4.31-6.17-6.24-9.42-5.79-9.71-11.75-19.34-15.65-30a25.85,25.85,0,0,0-3.06-5.79,18.15,18.15,0,0,1-2.83-7.07,5.23,5.23,0,0,1-.14-2.16c.68-3,.23-4.47-1.65-7a8.77,8.77,0,0,1-1.52-4.77c-.48-5.57-.95-11.14-1.67-16.67-1.15-8.94-2.55-17.84-3.76-26.77a304.6,304.6,0,0,1-2.22-30.92c-.41-12.66-.7-25.31-1.2-38-.36-9.12-1.1-18.23-1.4-27.35-.2-6.22-1-12.36-1.65-18.53-.16-1.62-.52-2.67-2.39-2.08-5.05,1.6-10.14,1.17-15.15,0-7.56-1.7-15.24-1.34-22.88-1.74-3.62-.19-7.29-.72-10.81.71-.68.27-1.12-.22-1.66-.47s-1.15,0-1.11.5c.19,2.4-1.34,1.8-2.6,1.53a46.82,46.82,0,0,0-9.08-.73c-1.81,0-3.76,0-4.52-2.24.52-.25,1-.5.83-1.23a.38.38,0,0,0-.25-.23c-.74-.07-.83.57-1.09,1-1.34.12-1.8-.47-2.11-1.83a31.51,31.51,0,0,1,1-18.94c1-2.59.44-4.23-1.59-5.85-.37-.29-1.09-.76-1-.87,1.25-2.78-2-4.58-1.48-7.34.44-2.45-.27-5.11,1.06-7.44S70.71,9,72.2,6.74a4.33,4.33,0,0,1,2.62-1.89c3.48-.71,6.64-2.31,9.94-3.5A22.33,22.33,0,0,1,94.06.06c7,.5,14.07.27,21.1.37,5.72.09,11.39,1,17.11.78,2.39-.08,4.13,1.6,5.77,2.8,2.61,1.9,5.51,3.93,5.06,8.12-.19,1.71.71,3.54,1.14,5.31.33,1.38,1.19,2.76-.2,4.08a1,1,0,0,0-.16,1c1.84,2.39,1,5.16,1.1,7.77.15,5.57,2.27,10.62,4,15.8-.94.28-2.39,1.19-2.53-.42-.27-3.28-1.84-6.13-2.5-9.25a16.64,16.64,0,0,0-2-4.25,1.35,1.35,0,0,0-1.78-.78c-1,.3-.86,1-.77,1.76.22,1.74,1,3.45.13,5.51-1.16-1.94-.4-4.37-2.11-6-.68,4.36,2.59,7.2,3.52,10.82.1.39,1,.59,1.47.88.73-.73.4-2.08,1.84-2.37-.42,4.2-.78,8.33.07,12.77a5.79,5.79,0,0,0,1.5-4.06c.07-.91.52-1.3,1.44-1l-.75,5.09c-.52.28-.51.78-.5,1.27a2.92,2.92,0,0,0-.54,2.43c1.14,7.12.8,14.32,1.2,21.48a4.82,4.82,0,0,0,.32.92c1.67-3.95-.74-8.69,2.73-12-1.46,7.33-1,14.75-1.48,22.12C148,94,149,97,148.9,100c-.14,5.92.09,11.85-.18,17.76a141.7,141.7,0,0,0,1.16,25.13c1,7.59,1.47,15.25,2.25,22.88,1.2,11.61,2.2,23.24,3.42,34.84.84,8,2.62,15.85,3.91,23.79a37.15,37.15,0,0,0,2.71,10.17c.91,1.9,2.39,3.38,3.33,5.1s.4,4,1.5,5.8c.76,1.25,1.38,2.59,2.22,3.77,4.36,6.17,8.36,12.66,13.32,18.31,3.38,3.84,5.53,8.19,8,12.48a13.31,13.31,0,0,1,2.21,6.33c0,2.07,1.34,4.12,2.17,6.14a167.26,167.26,0,0,1,9.05,27.35c.91,4.05,2.07,8.24,1,12.55-.48,1.95.44,3.84.66,5.76a71.14,71.14,0,0,1,.46,12c-.27,5.13.94,10.15.93,15.29-.06,21.06-.48,42.12,2,63.11a475.39,475.39,0,0,1,3.42,58c0,12.78.41,25.57,0,38.36-.36,11.8-.76,23.6-1.12,35.4-.13,4.26-.17,8.52-.27,12.78,0,2-.07,4.07-1.23,6,0-3.43-.07-6.87,0-10.31.17-7.18.27-14.36.67-21.53.56-10.2.51-20.42,1-30.64.37-8.37-.21-16.78-.34-25.18q-.21-13.33-.39-26.68a8,8,0,0,0-.94-4.6,36.51,36.51,0,0,0-1.19,8.57q-.34,10.93-.73,21.88c-.33,9.59-.64,19.19-1,28.78a128.17,128.17,0,0,0,1,19.69,124,124,0,0,1,.38,24.44c-.72,8.55.36,17,.81,25.52.36,6.69.28,13.38.41,20.07.3,15.34-1.38,30.63-1.27,46,0,6,.05,11.91.16,17.87,0,1.17.08,2-1.29,2.57-1.21.54-1.69,1.83-1.65,3.36.12,3.89.07,7.78,0,11.68-.1,8-.15,16-1.83,24-.38,1.77-.35,3.63-.58,5.44a39.68,39.68,0,0,1-1,6.49c-.61,2-3,2.62-4.11,4.47a9.3,9.3,0,0,1-4.66,3.95c-2,.79-3.73,2.32-5.88,2.91-4.47,1.23-8.95,2.42-13.64,2.28-6-.18-11.9.85-17.87,1-6.59.13-13.14-.67-19.71-.67-11.56,0-23.11.44-34.64,1.51a203.84,203.84,0,0,1-22.24,1.28c-4.14-.07-8.29-.16-12.42,0-12.35.42-24.2-2.12-35.84-5.91A85.64,85.64,0,0,1,15.94,731h0c-.08-1.19.44-2.66-1.4-3l-.15.13c.06-.66-.27-1-.9-1-.33-.92-.33-.92-1.55.13-1.65-1-1.13-2.82-1.55-4.26-.78,0-1.77,2.75-2.25-.13A75.69,75.69,0,0,1,7,714.55c-.26-4.62-1.46-9-2.36-13.53A33.93,33.93,0,0,1,4,694.13c0-1.08-.26-2.26,1.45-2.33.89,0,.71-.88.7-1.4-.13-3.76-.33-7.52-.5-11.27,0-.24,0-.6-.12-.7-2.72-2-2-5.11-2.18-7.7-.64-6.9-.93-13.83-1.08-20.76-.07-3.17-.46-6.31-.76-9.44C0,625.22-.77,609.91,1.17,594.59c1.15-9.06,2-18.16,2.49-27.25.57-9.72.53-19.48.48-29.22-.09-17.3.32-34.57,1.09-51.85.43-9.47.06-19,.26-28.44.27-13.26-.28-26.52.72-39.77.31-4.11-.12-8.26.28-12.39,0-.34,0-.92-.19-1-2.44-1.27-1.56-3.61-1.61-5.45a267.76,267.76,0,0,1,2.82-45.79c.45-3,1.18-6,1.65-9,.83-5.28,1.22-10.62,1.84-15.92.91-7.84,3.25-15.2,5.85-22.54.61-1.72,1.1-3.48,1.64-5.22.17-.58.62-1.35.41-1.73-1.53-2.82.49-4.85,1.51-7,1.61-3.4,3.76-6.53,5.11-10.08a10.39,10.39,0,0,1,4-5.05c2.13-1.47,3.34-3.81,4.54-6.09,1.3-2.46,2.4-5,4.79-6.78a7.23,7.23,0,0,0,1.57-2.44c2.6-4.81,5.44-9.51,7.71-14.47a101.55,101.55,0,0,0,7-20.63c1.59-7.3,2-14.68,3.14-22a25.29,25.29,0,0,0,.26-7.18c-.29-2.42.68-5,1.05-7.51,1.55-10.34,3.15-20.69,4.62-31.05.85-6,1.7-12,2.18-18.09.91-11.64,3.14-23.11,4.27-34.71.58-6,.33-12.16.4-18.24s0-11.93.17-17.89a33.47,33.47,0,0,0-.79-9.42c-.15-.55-.25-1.29.52-1.51s1.13.37,1.26,1c.62,2.9,1.72,5.59,1.3,8.81-.58,4.4-.15,8.92.11,13.41a211.51,211.51,0,0,0,1.86-22.51c1.92,1.25,1.47,2.6,1.34,3.87-.9,8.84-1.9,17.67-2.67,26.51-1.26,14.43-3,28.82-2.9,43.33,0,2.4-1,4.48-1.31,6.75-1.14,8.45-1.79,16.94-2.43,25.44-.56,7.52-1.21,15-2.19,22.53-.51,4-.72,8-1.58,12,0-2.15-.14-4.31,0-6.45.54-6.91,1.2-13.81,1.82-20.72a9.7,9.7,0,0,0-.07-4,110.36,110.36,0,0,0,1.56-18q-1.17,9-2.35,17.94Q62.28,180.27,61,191.87a4,4,0,0,0,0,1.46c1.46,5.74-.18,11.33-.84,17-.35,3-.56,6-.8,9A38.68,38.68,0,0,1,57,228.44c-4.52,13.38-9.41,26.62-16.88,38.71a53.14,53.14,0,0,1-6,8.28,25.26,25.26,0,0,0-4.24,7c-5.61,12.47-10.37,25.2-13.29,38.58a202.93,202.93,0,0,0-4.76,35,78.1,78.1,0,0,1-1.64,12.64C8.3,378,8.29,387.53,7.61,397c-.05.71-.12,1.49,1,1.53,1.69,0,1.58,1.05,1.2,2.27-1.75,5.73-1.16,11.42-.34,17.29.76,5.5.45,11.18,1,16.75a227,227,0,0,1,.5,31.72c-.48,12.39-.29,24.81-1.56,37.15-1.14,11-.89,22.13-1.61,33.18-.44,6.8-.74,13.63-.81,20.41s-.06,13.38,0,20.07c.09,5.35.08,10.7.22,16,.08,2.9.38,5.79.58,8.68,0,.33.18.71.07,1C6.6,606.25,6.59,606.25,7,611c1.55-.38.35-1.91,1.08-2.61.2.13.54.24.55.36.18,2.9.33,5.81.49,9-1.24-1.49.09-3.39-1.65-5-1.08,5.24-.3,10.19-.4,15.09s-.42,10-.18,15,.28,10,.75,15.08c1.23-2.52.91-5.23,1.39-7.82a11.78,11.78,0,0,0,0-1.46c0-.56.31-.91.91-.82a.72.72,0,0,1,.59.79,17.76,17.76,0,0,1-.14,2.19,106.6,106.6,0,0,0-1,15.65c0,4.15-.62,8.24-.52,12.38s0,8.28,0,12.42c0,8.17.64,16.29,1.22,24.42a16.34,16.34,0,0,0,4.26,9.71,26.39,26.39,0,0,0,12.93,8.88,1.32,1.32,0,0,0,1.38.56l.79.18a1.41,1.41,0,0,0,1.39.53,16.35,16.35,0,0,0,6.26,1.76,78.89,78.89,0,0,0,12.81,2.71,2.54,2.54,0,0,0,2.29.54,156.44,156.44,0,0,0,29.75.67c-8.5-1.27-17-2.24-25.47-4-1.53-.93-3.35-.34-4.81-.75-1.62-.46-3.13-1.68-4.93-2a3.35,3.35,0,0,0-1.41,0c-.6.16-.44.78-.55,1.22-.68.08-1.61.29-1.4-.81.34-1.84-.68-1.49-1.42-.85-.5.42-.82.69-1.43.5v-.29c-.89-1.26-2.19-.61-3.31-.66a11.3,11.3,0,0,1-3.15-.53c-1.56-.53-.33-2.31-1.58-3l-2.62,1.1c-.46-.5-1.3-.94-.55-1.76s1.39-1.32,2.12-2c-3-1.26-3-1.26-3.84,1.53-1.83-1.19-1-3.08-1.29-4.59a34.48,34.48,0,0,1-.4-5.09c-.06-1.7,0-3.39,0-5.41-1.69,1.1-.79,2.35-1,3.37-.11.63-.3,1.33-.92,1.43s-1-.56-1.1-1.2c-.51-3.12-1.32-6.19-1.4-9.38a4.21,4.21,0,0,0-.93-3.28c-.71,4.3-.38,8.18-.2,12a110.6,110.6,0,0,0,1.11,11.45c-1.4.1-1.28-.75-1.35-1.43-1.27-12.63-.8-25.3-1-38,0-1.2-.09-2.28,1.35-3.05,1.28-.68.54-2.23.43-3.36-.51-5.2-1.17-10.39-1.71-15.6-1.38-13.32-2-26.69-2.54-40.07-.29-7-.72-14.08-1.09-21.12l1.37-.1c.72,24,1.72,48.06,5.05,72,.43-3,.84-6,1.29-9.06a25.9,25.9,0,0,1,1.23-6.05c.39-1,.58-2.38,1.93-2.36s1.39,1.48,1.58,2.49a112.06,112.06,0,0,1,1.25,13.06c.49,7.4.86,14.81,1.27,22.21.08,1.32-.18,2.74,1.33,3.51-.11,1.19-.22,2.38-.34,3.56-.78.07-1.5,0-1.64-1a32.68,32.68,0,0,1-.68-5.06c.12-8.79-.92-17.51-1.31-26.26a35.68,35.68,0,0,0-1.47-10,2,2,0,0,0-1.31,1.75c-1.83,10.71-3.26,21.44-1.53,32.31.21,1.32.21,2.67.47,4,.17.83-.17,2.27,1.17,2.23,1,0,.77-1.29.85-2.08.14-1.33.24-2.67.33-4,.13-2.18.25-4.36.4-7.14,1.52,1.55,1.06,2.78.94,3.89a191.51,191.51,0,0,0-.89,21.15c0,3,.25,5.93.41,9.29,1.67-1.17,2.8-2.06,4-2.79a2.67,2.67,0,0,0,1.35-2.76c-.34-4.51.19-9,.31-13.49l.28-3.65a35.69,35.69,0,0,0,.71-13c-1.27.5-1,1.46-1.3,2.07a51.27,51.27,0,0,1,.12-11.21c.06-.59.15-1.27,1-1.29s1,.65,1.07,1.23c.27,2.66.46,5.33.69,8,.39,4.58.78,9.17,1.52,13.76,1.17-1.8.73-3.8.89-5.7.11-1.14.06-2.22,1.67-2.25.92,0,1-.85,1.22-1.57s.07-1.75,1.1-2.13c1.09.21.72,1.11.7,1.73-.15,4.38-.28,8.77-.6,13.14a35.3,35.3,0,0,0,.56,7.62,2.06,2.06,0,0,0,1.81,2c1.37.27,1.14-.79,1.42-1.52.58-1.5,2.08-1.57,3.33-1.92,2.87-.83,2.9-.79,3.17-3.78.31-3.52.57-7,.85-10.56,0-.48.28-1.15.06-1.43-2-2.48.85-4.22.57-6.47,2,.52.35,2.66,1.78,3a15.18,15.18,0,0,0,4.34.43c3.34-.21,6.49,1,9.76,1.15.59,0,1.25.27,1.47-.56a1.22,1.22,0,0,0-.75-1.48c-1.53-.73-3.08-1.44-4.63-2.13a26.11,26.11,0,0,1-14.51-16A116,116,0,0,1,47,656.59c-.43-2.12.8-4.44-1.48-6.27l.93-.17q1.74,7.05,3.47,14.1a64.76,64.76,0,0,0,3.31,9.66A24.63,24.63,0,0,0,66.05,687.2a25.53,25.53,0,0,1,3.3,1.54c1.64,1.07,2.62.42,3.37-1.44,1.26,1.33.23,3.84,2.83,3.86,1.65,0,3.29.87,5,1.12,1.35.21,1.46-1.07,1.66-2,.41-1.82.18-3.84,2.06-5.65.86,2.41-.11,4.39-.13,6.35s1.53,3.27,4,3.52c2.11.21,3.22-.62,3.56-2.65a6,6,0,0,0,0-2.53,5.14,5.14,0,0,1,.39-3.2c.18-.48.45-.9,1-.81s.7.63.64,1.12c-.22,1.81-.56,3.61-.73,5.43-.23,2.28-.1,2.35,2.32,2.3,3-.07,6.07-.14,9.11-.14,1.33,0,2-.48,2.15-1.84.26-2.05.65-4.09,1-6.12.32-1.61-.47-2.25-1.93-2.35-8.73-.58-17.45-1.54-26.22-1.44a15.75,15.75,0,0,1-5.43-.4c-.57-.2-1.18-.51-1-1.27.11-.54.65-.63,1.13-.7,4.21-.63,8.39-1.47,12.68-1.28,1.37.06,2.86.46,3.91-1.11.52-.79,1.59-.3,2.41-.26,4.12.22,8.24.56,12.37.69,3.42.11,3.64-.13,3.36-3.42a7.4,7.4,0,0,1,1.62-5.85c.77,3.49-.73,6.37-.42,9.57,2.94.45,5.94.15,8.92.28,1.13,0,1.45-.67,1.62-1.57.34-1.8.62-3.61,1-5.38.31-1.25.26-2.66,1.26-3.67,1.22.27.79,1.15.68,1.74-.4,2.15-.84,4.29-1.38,6.41-.66,2.56-.4,3,2.06,2.92,1.33,0,2.67,0,4,0,2.74-.11,4.1-1.47,3-3.91-1.18-2.75-.43-5.1.18-7.61a9.63,9.63,0,0,1,1.46-3.83c1.22.58.88,1.62.79,2.46q-.55,5.26-1.24,10.52c-.17,1.25,0,2.18,1.44,2.35s3,.75,3.82-1.05a8,8,0,0,0,.48-1.76c.41-2,.84-4,1.18-6.07s2.28-3.34,2.32-6a51.82,51.82,0,0,1-1,12.34c-.38,2.05,0,2.33,2,2.44,6.53.37,6.57.37,7.32-6.21.26-2.28,1.4-5.15.06-6.73-1.53-1.8-.42-2.72-.08-4,.18-.73.54-1.46,1.47-1.15.66.23.68,1,.62,1.58-.41,4-.84,8-1.25,12-.5,4.86-.24,5.13,4.75,5,.53,0,.94-.13,1.1-.69,3,1,3.27,1,3.54-1.81.65-6.55,1.12-13.13,1.58-19.7C161.9,655.93,162.13,654.56,160.64,653.94Zm-132-372.56c-.64.1-.85.63-1.09,1.12-3.95,5.13-5.34,11.23-7.15,17.94,2.06-1.53,2-3.28,2.56-4.67,1.73-4.23,4-8.22,5.25-12.66a1.69,1.69,0,0,0,.56-1.62.6.6,0,0,0,.53-.71c0-.11-.23-.21-.36-.31Zm54.85-228c.36.6.94.53,1.51.5,1.07.22,2.13.67,3.26.27a1,1,0,0,0,1.12.37,6.12,6.12,0,0,0,3.74.06,1.07,1.07,0,0,0,1.13-.43l2.53-.34a1,1,0,0,0,1-.41l.22.07.18-.13c1.78.4,3.29-1,5-.73,0,.35,0,.7,0,1.06l-2.39.68.08.36,2.44-.13h2.24l4.34.45c3.57.55,7.11,1.81,10.78.56.17.32,0,.95.62.85.08,0,.07-.6.1-.93,1-.85,1.85.09,2.77.12.35.31.73.83.91-.12l.16-1.56c1.28-.34,2.28-1.92,4-1-1.48,2.5-1.31,2.51,1.08,3.47,3.24,1.29,5.38-1.54,8.18-1.77,1.15-.1,1.62-1.38,2.64-1.81.24-.11.42-.6.46-.94s0-1.24-.48-1.24c-2,0-3.86-2-5.89-.56s-4.16,1.09-6.37.9c-2.53-.21-5.09-.41-7.63-.37-7.16.12-14.31.27-21.39-1.1v.06c-.13-.43-.46-.41-.8-.37a26.07,26.07,0,0,0-7-1.07A7.67,7.67,0,0,0,88,47.62l-1.5-.26-.73-.69c.69-1.78,2.49-.89,3.65-1.54,1.08-.08,2.23.23,3.18-.56l1,.12c.44,1.1-1.1,1-1.11,1.72,2.14.33,4.18,1.17,6.36,1a14.77,14.77,0,0,0,1.69.6,35.38,35.38,0,0,0,14.42.29l4.44-.35,5,0c1.61-.6,2.94.8,4.5.62,1-.12,2.42.19,2.65-1.23a2.27,2.27,0,0,0-1.95-2.92,11.65,11.65,0,0,1-4.36-1.72,3.16,3.16,0,0,1-.15-2.08c.31-.14.78.17,1-.33l-.93-.15-.06,0c-1.33-.87-2.81-.29-4.22-.44a2.75,2.75,0,0,1-1.66-1.78c2.45-1.79,5.44-1.24,8.62-1.85-3.88-.68-7.28-1.61-10.72-.23-.77-.1-.89-1.5-2-1l-.08-.08c.39-.58,0-.92-.4-1.23.27-1.13,1.19-1,2-1,2.78,0,5.57.05,8.36,0,3,0,6,.18,9.53-.78a49.51,49.51,0,0,0-13.61-.41c-3,.36-6,1.06-9,.81-9.41-.78-18.82,0-28.23-.17a9.36,9.36,0,0,0-6.81.11l0,0c-1.62-.07-3,.18-3.36,2.14q-.77,6.54-1.52,13.08A4,4,0,0,0,72,50.8c1.31-.86,1.36-2.47,2.47-3.28l1.6.69a2.17,2.17,0,0,0,1.15,1.64,2.1,2.1,0,0,0,1.53,1.3,1.46,1.46,0,0,0,1.14.69,3.24,3.24,0,0,0,2.07,1l1.53.52ZM194,295.38c.51-.94,0-1.65-.57-2.32a93.75,93.75,0,0,0-6.07-15.54,20.42,20.42,0,0,0-3.81-5.72,13.24,13.24,0,0,1-2.59-3.62c-1.9-3.55-4.61-6.67-7-10-.6.47-.51.86-.36,1.17q8.18,15.83,17,31.34a6.43,6.43,0,0,0,2.37,2.69c.2.75.28,1.56,1.13,1.92a1.82,1.82,0,0,0,1.06,1.72C195.14,296.16,195,295.46,194,295.38ZM111.46,727c.71,0,1.37-.7,2.11-.12-.06,1-1.61.9-1.53,2,2.19-.07,2.19-.07,1.5-2s-.61-1.93-2.35-.24a2.06,2.06,0,0,0-1.47.75,4.37,4.37,0,0,1-.72.06c-.42,0-.77-.31-.3-.63,2.15-1.45,4.36-2.83,6.47-4.19.75.42.08,1.29.92,1.64l4.3-2.71c-1-.39-1.13-1.92-2.49-1.46-1.74.59-3.56.26-5.32.44a18.39,18.39,0,0,0-7.31,2.14c-1.4.79-2.6,4.48-1.9,5.82a1.17,1.17,0,0,0,.81.59c2.1,0,4.39.93,6.17-1A1.7,1.7,0,0,0,111.46,727ZM70.84,40.59c-.52,1.86-.87,3.74.18,5.66.1-1.75.21-3.5.31-5.26.37-.35.57-1,.2-1.17C71,39.53,71,40.27,70.84,40.59ZM83.53,726.9c3.77,1.14,3.91,1.07,3.79-2L83.49,727c-.39-1.42,2-1.35,1.54-2.82-1.36,0-2.69,0-4,0-.75,0-1,.56-1,1.23a1.22,1.22,0,0,0,.74,1.14C81.61,727,82.66,726.26,83.53,726.9Zm18.06-1.77c-2,.73-3.37,2.2-5.31,3.76l3.86.34c1.29.12,2.08-.34,2-1.76,0-.59,0-1.19,0-1.79.25-.27.46-.58,0-.83C102.07,724.79,101.79,725,101.59,725.13ZM130.35,17.46l-.19-.19.24.14a10.42,10.42,0,0,1-.24,2.87c-.65,1.82.28,2.15,1.73,2.19.47,0,.94.05,1.41.07.91,0,1.83,1.51,2.73,0-.91-1.4-1.81.56-2.72,0-.55-1-.34-1.85.8-2.25s1.44-.9.74-1.83c-.41-.55-.59-1.82-1.78-.87C132.13,18.32,131.27,17.21,130.35,17.46ZM38.93,729.08c2.37-1.62.31-4.17,1.28-6.09L39,722.46c-1.21-1.53,1.53-1.65,1.11-3-2.26.34-3.65,2-5.33,3.13-.55.37-.86.85-.4,1.5s1,.34,1.55.08c1.07-.48,1.42-2.25,3-1.72.19,1.28-1,1.5-1.68,2-1.53,1.32-1.46,1.27-2.65,4.11-1,2.34-.47,2.94,2.16,2.59.72.94,1.75.56,2.66.6.72,0,1-.42,1.06-1.13C40.48,729.65,40.42,728.7,38.93,729.08Zm79.83,3.73c.51.11,1.74-.66,1.15.8-.29.73-1.45.79-1.85,1.94,1.51,0,2.92,0,4.33,0,2.08-.09,3.91-3.3,2.94-5.16a1.19,1.19,0,0,0-.83-.54c-2.43-.1-5-.52-6.23,2.44a5.7,5.7,0,0,0-.55.42c-.28.3-.89.63-.5,1s.81-.14,1.15-.39A2.47,2.47,0,0,0,118.76,732.81Zm31.82-7.68c.16.16.32.33.47.5-.3.73-1.41.79-1.57,1.74,4.69.37,5.14-.26,5.41-3.73.29-3.71.52-3.74-3.17-3.35-1.17.13-2.67-.47-3.45.45s-.14,2.26.38,3.38c.22.47-.81,1-.08,1.6Zm-45.82,8.33c-.21-1.33,2.1-1.26,1.6-2.77-3.16-.64-4.35,0-3.62,3.11.7,0,1.29-.71,2.05-.37.63.66-.6,1.3.06,2,2.82-.19,5.73.18,8.62-.29.56-.09,1.36.18,1.48-.63.26-1.81,2.27-2.52,2.61-4.33-1.89,0-3.72,0-5.56,0a7.21,7.21,0,0,0-4.89,2.07C106.48,732.87,106,733.91,104.76,733.46ZM77,731.27a12,12,0,0,1,.81-1.16c.7-.78,1.2-1.81.58-2.63a2.23,2.23,0,0,0-3-.31c-2.64,1.77-5.16,3.73-8,5.81,2.93,1.37,5.24,1.27,7.45-.52A15.65,15.65,0,0,1,77,731.22c-.35,1.15-2,1.35-2.22,2.74,3.5,1.25,7,.68,10.45,1.11a1.76,1.76,0,0,0,2-1.21c1.21-3.16,0-5.08-3.25-5.51a3.45,3.45,0,0,0-3.31.94A5.83,5.83,0,0,1,77,731.27Zm-22.67-8c-.38-.37.85-1.13-.29-1.3-.48-.08-1.08,0-1.05.6,0,1,.93.41,1.39.65-1,.75-2.22,3.61-3-.2-.16-.74-.94-.59-1.54-.5-3.32.54-5.61,2.78-7.8,5-.94,1-.66,2.62-.15,3.82.44,1,1.71.56,2.64.63a3.13,3.13,0,0,0,3.11-1.47c1.09-1.73,3.4-2.3,4.12-4.48.2-.6,1.46-.65,2.51-.24a5.34,5.34,0,0,0-2.13,4.71c.08,1.33.67,1.82,1.83,1.42,2.23-.76,3.69-2.69,5.42-4.13,1.15-1,.53-2.84.5-4.33a4,4,0,0,0-3.22,1.11C54.79,725.8,55.57,722.7,54.28,723.24Zm118.51-40c-4.26-1-3.73-.29-4.14,3.08-.81,6.51-1.67,13-2.43,19.54-.31,2.65-.4,5.33-.61,8-.06.76-.11,1.67.78,1.79,2.89.39,5.65,1.54,8.62,1.45,1.24,0,1.7-.77,1.77-1.87a50,50,0,0,0,.33-6.9c-.61-7.76-1-15.52-1-23.3,0-.73.28-1.86-1.16-1.71Zm19.8,49.58c4.37-1.62,8.5-7.67,7.85-12.41-.72-5.21-.46-10.43-.83-15.63a133.13,133.13,0,0,1,.11-24,53.13,53.13,0,0,0,.11-6.56c0-.73.16-1.76-1.29-1.9-.36,1.52-.82,3-1.06,4.57q-1.81,11.33-3.5,22.66a116.83,116.83,0,0,1-3.28,16.39c-.48,1.63-.23,4.15-3.19,4-.45,0-.57.71-.62,1.19a3.59,3.59,0,0,0,.87,3.3c2.28,2.41,4.7,4.82,4.86,8.48-4.35-3.78-9.63-6-14.65-8.62a.86.86,0,0,0-1.33.73c-.08.66-.47,1.5.63,1.74.47.1,1,0,1.45.11a11,11,0,0,1,6.19,2.81c1.76,1.59,3,3.34,2.69,6.09A16.8,16.8,0,0,0,192.59,732.77ZM127.22,8.29c-.63.38-.67,1.19-1.06,1.76-1.16,1.69-1.42,1.93-2.84.95a5.08,5.08,0,0,1-1-1,6.89,6.89,0,0,0-5-2.46c-6.07-.17-12.1-1.22-18.22-.41-2.78.37-5.48,1-8.23,1.53-1.68.29-3.42.75-5.45-.67C94,5.64,102.5,5.66,111.2,4.89a5.45,5.45,0,0,0-4.64-1.25C98.19,5,89.45,3.44,81.33,6.77c-.68.28-1.62.57-2-.22-1-2.39-2.71-1.26-3.83-.54a18,18,0,0,0-7.22,10.14c-.52,1.69-.17,3.63-.22,5.46A2.36,2.36,0,0,0,70,24c1.18.42,1.79-.08,2-1.33.15-1,1.05-.86,1.75-.85,1.05,0,2.15.42,3-.42.05-.26.11-.39.08-.5-.17-.77-1.16-1.5-.33-2.31S78,17,78.82,17c1.59,0,1.07,1.53,1.26,2.49s.41,1.67,1.55,1.64a17.93,17.93,0,0,0,5.74-1c1.28-.48,1.12-2,1.56-3.12a3,3,0,0,1,.57-.93c.36-.37,1.18-.53,1.22-.12.2,2.05,3.45,2.94,1.83,5.74a6.5,6.5,0,0,1,5.08,1.77c.54-1.85.91-3.36,1.43-4.82.63-1.78,2.22-3,3.46-2.57,1.86.58,1.28,2,1.07,3.3s.31,2.36,2,2.35a28.52,28.52,0,0,1,2.92.13c1.08.09,1.47-.69,2.2-1.26,1.75-1.39,1-3.5,2.06-5.62,1.37,2.71,4.42,2.52,5.57,4.86a.94.94,0,0,0,1.29.29,14.67,14.67,0,0,1,6.45-1c1,0,1.67-.38,1.65-1.47,0-2,2.15-3,2-5.1-.06-.83,1.06-1.36,1.87-.41a3.83,3.83,0,0,0,2.12,1.32c.59.14,1.37.36,1.67-.22a1.25,1.25,0,0,0-.85-1.75C132,10.63,130,8.74,127.22,8.29ZM207,673.38a19.36,19.36,0,0,0,.29-5.06q-.6-16.23.24-32.45c.49-9.59,1-19.19,1.07-28.79.05-7.76-.51-15.53-.86-23.3a22.84,22.84,0,0,0-.64-3.42,5.45,5.45,0,0,0-.73,2.74c-.62,11.54-1.11,23.08-1.59,34.62-.7,16.8,0,33.53,1,50.28A16.46,16.46,0,0,0,207,673.38ZM7.46,509.57c.77-9.8,2.05-19.58,2.15-29.4.11-10.08,1.23-20.12.72-30.22-.49-9.87-1.89-19.64-2.52-29.5C7.43,428.09,7,435.73,7,443.37c0,8.23.79,16.46.35,24.7C6.67,481.89,7.27,495.71,7.46,509.57ZM160.05,685.76a8.47,8.47,0,0,1-.36-3.75c0-.79-.26-1.7-1.09-1.58-2.37.35-4.62-.76-7-.37-1,.16-1.66.46-1.63,1.48.09,2.3-1.53,4.78-.33,6.74,1,1.58,3.57,1.05,5.4,1.64a9.72,9.72,0,0,0,1.76.39c.7.07,1.43.33,2-.36.41-.49-.08-1.28.57-1.69.45.69-.2,1.66.62,2.17.63-1.73.22-3.77,1.53-5.29,1.34.69,1,1.62,1,2.41.07,2.06-.07,4.05,2.39,5.21,1.15.55,1.05,1.65-.62,2.18-1.82.57-3.13,1.77-2.42,4a5.21,5.21,0,0,1,0,1.48c1-.37.17-1.7,1.13-2.1a14,14,0,0,1,.81,5.29,51.69,51.69,0,0,0,.37,5.53c.74-2.36,1.06-4.76,1.6-7.1a58.86,58.86,0,0,0,.95-7.54c.35-3.38,1.05-6.73,1.1-10.15,0-1.83-.3-2.72-2.49-3C160.47,680.58,160.5,680.37,160.05,685.76ZM115,694.92a.91.91,0,0,1,1.13-.69c2.06.2,2.92-.71,2.75-2.75A6.47,6.47,0,0,1,119,690c.7-4.91.7-4.91-4.09-5.64-5.49-.84-5.82-.62-6.9,4.7-.12.59-.27,1.19-.34,1.79-.36,3.14-.18,3.32,2.9,3.39.77,0,1.66-.43,2.58.71-1.62.09-3,.14-4.35.24-.73,0-1.57.11-1.71,1-.34,2.15-.59,4.31-.84,6.47-.12,1,.37,1.6,1.45,1.59l8.39-.1c.71,0,1-.44,1.2-1.1.66-2.39,0-3.54-2.42-4.07-.83-.19-1.63-.51-2.46-.66s-1.46,0-2.17-.18-1.62.56-1.87-.78l1.06.1c2.4.26,4.81.54,7.21.78,1.19.11,1.36-.68,1.4-1.63s-.22-1.35-1.15-1.47C116.23,695.11,115.48,695.66,115,694.92Zm-13.43,44.56c0-2.4-1.07-3-3.12-2.94a97.06,97.06,0,0,1-10.48.22,115.71,115.71,0,0,1-13-1.41c-2.28-.42-3.37.08-3.87,2.24-.06.27-.41.23-.58,0-.9-.79.62-1.75-.37-2.83-3.61.74-7.18-.65-10.86-1.12a4.3,4.3,0,0,0-4.61,1.8C70.19,738.93,85.63,741.52,101.52,739.48Zm83.63-7.61c-1.9-2.73-4.42-3.38-7.16-3.61-1.37-.11-2.2.38-1.92,1.83.2,1,.35,1.77-.94,2.26s-2.17.61-2.84-.58c-1.09-1.93-2.42-1.55-3.91-.59-3.38,2.19-7.2,2.8-11.11,3-2.91.12-5.83.08-8.74.2a11.53,11.53,0,0,0-6.72,1.89,19,19,0,0,0,5.28.82,84.85,84.85,0,0,0,14.52-.55c6.14-.72,12.33-1,18.39-2.35A12.45,12.45,0,0,0,185.15,731.87ZM5.65,674c.5-4.83-1.08-9.67.42-14.44a3.66,3.66,0,0,0,0-1.09c-.1-9.47-.71-18.91-.36-28.4.39-10.41-.2-20.86-.38-31.29,0-.47.12-1-.53-1.51-.09.61-.19,1.08-.22,1.56-.62,11.78-.79,23.58-.74,35.37.06,12-.31,24.1.85,36.11C4.78,671.55,4.43,673,5.65,674Zm196.24,39.85c2.71-5.5,3.24-38,1-47.65C201.81,669.33,200.84,710.22,201.89,713.82ZM87.18,706.38c3.77-2.12,2.78-5.46,3.56-8.33-1.82-.43-3.44-.93-5.09-1.2-1.92-.31-2.56.25-2.83,2.26-.2,1.54-.34,3.09-.49,4.55.87.75,1.76.4,2.58.51s1.75-.5,2.35.55c-1.49.69-3.11-.12-4.59.45.51,1.83,2.76.17,3.47,1.66-1.16,1.08-2.65-.19-3.72.67-.06.67.42.68.71.64,6.18-.94,12.33-.38,18.47.35a16,16,0,0,0,1.83,0c1.17,0,1.35-.76,1.34-1.7s-.72-1.17-1.49-1.14c-2.43.1-4.86.17-7.28.37A42.39,42.39,0,0,1,87.18,706.38ZM54.56,694.2c-.31,3.3-.67,6.64-.93,10-.43,5.45-.41,5.4,5,4.3a2.27,2.27,0,0,0,2.14-2.43c0-1.93.17-3.87.07-5.8-.27-5-.49-5.18-5.41-6.24C55.23,694,55,694.11,54.56,694.2ZM154,695.3v.06a24.09,24.09,0,0,1-2.55,0c-1.85-.21-2.73.56-2.75,2.42,0,2.07-.12,4.14-.17,6.21,0,.81.27,1.56,1.15,1.55a46.51,46.51,0,0,1,5.77.78c1,.12,1.65-.26,1.78-1.32.23-1.81.41-3.62.67-5.43.6-4.2.62-4.2-3.53-4.26ZM133.66,4.76c-3,.56-6,0-8.86,1.19,4.06.79,8.13,1.67,12.43-1-2.13-.59-3.09-2.54-4.83-2.51-4.48.07-8.88-1.47-13.34-.77-3.64.57-7.2-.21-10.8,0s-6.93-.09-10.37.4c-.64.09-1.48-.19-1.66,1a6.68,6.68,0,0,0,3.49.13,70.59,70.59,0,0,1,19.15.19c2.26.35,4.68,1.1,6.84.39C128.63,2.86,131.08,3.87,133.66,4.76Zm-28.49,693c-3.4.8-6.8.61-10.2.51s-3.41.06-3.59,3.39c-.13,2.28,0,2.52,2.32,2.59,2.67.07,5.34,0,8,0,3.5,0,3.69-.12,3.83-3.6A4.82,4.82,0,0,0,105.17,697.76Zm42.45,2.07c.25-4.45.25-4.45-4.36-4.61a17.43,17.43,0,0,1-2.17,0c-2-.36-2.73.46-3,2.5-.53,4.89-.64,4.88,4.07,6.2C147.32,705.31,147.32,705.31,147.62,699.83Zm-82.49,8v0l1.45-.07c3.67-.24,3.66-.24,4-4,.11-1.32.42-2.67-1.08-3.51-1.69-.94-3.35-1.93-5-2.87-1.28-.71-2-.44-2.11,1.16-.14,2.54-.34,5.06-.55,7.59-.1,1.16.2,1.9,1.54,1.78C63.92,707.87,64.53,707.85,65.13,707.82ZM124.52,694c.84,0,1.69,0,2.54,0,2.47,0,2.47-.06,2.72-2.62.46-4.82.46-4.82-4.41-5.4l-.72-.09c-3.79-.46-3.79-.46-4.48,3.18C119.19,694.24,119.19,694.24,124.52,694ZM82,698.9c-.07-.8.37-1.67-.62-2-2.41-.75-4.69-1.9-7.23-2.2a1.24,1.24,0,0,0-1.43.79c-1.52,3.25-.94,5,2.28,6.77.64.34,1.28.69,1.94,1,3.49,1.56,4,1.31,4.6-2.37C81.67,700.19,81.87,699.49,82,698.9Zm66.87-15.28c.18-3.47,0-3.63-3.46-3.6a19.38,19.38,0,0,1-2.53,0c-1.85-.22-2.57.73-2.89,2.39-.83,4.21-.64,4.53,3.56,5.35C148.51,688.7,148.63,688.61,148.88,683.62Zm-26.06,23.52c-1.09-.09-2.18-.18-3.27-.29-1.38-.13-2,.62-2.18,1.87-.19,1.49,1.11,1.65,1.92,1.59,3-.22,6.07,1.69,9-.3.08-.06.41.08.47.21,1,2.14,3.16,1.13,4.73,1.73,1.37.53,2.2-.06,2.54-1.61.42-1.93-1-2.12-2.08-2.13C130.2,708.17,126.55,707.3,122.82,707.14ZM133.26,9.58c2.35.77,3.61,1.7,3.2,3.85-.38,1.9-.23,3.57,1.69,4.7.92.55.43,1.72.67,2.59,2.48-.68,3.73-1.75,3.58-3.3-.24-2.51-.68-5-.93-7.52-.18-1.68-1.11-2.2-2.44-1.48A10.84,10.84,0,0,1,133.26,9.58ZM35.4,712.67c1-.91,2-.5,2.9-.54,2.22-.1,2.51-.29,2.27-2.53s-.75-4.62-1.18-7.11c-1.13,1.21-.27,2.93-1.72,3.85-2.39-1.22-1.23-4.26-3-6.08-.19,3.44-.84,6.59-.85,9.85,0,5.57,0,5.64,5.61,4.69.3,0,.54-.4.81-.62C38.87,712.93,36.89,713.71,35.4,712.67Zm31.52,15.81c.58-.54.75-.72.94-.86.76-.62,1.72-1.32,1-2.37a2.09,2.09,0,0,0-2.67-.37c-2.06,1.06-4.65,1.59-5.27,4.4-.13.57-.37.78-1,.59-2.21-.68-2.59,1.4-4.46,2.57,2.59.13,4.49-.14,6.11.4,3.09,1,5.06-.57,7.12-2.28.5-.41.93-.87.71-1.52C69.11,728.16,68.35,728.2,66.92,728.48Zm21.66,6.29.15.79c3.47,0,6.93,0,10.4,0a3,3,0,0,0,2.66-4.43,1.35,1.35,0,0,0-1.14-.75c-3.63-.45-7.22-.83-9.92,2.5A16.32,16.32,0,0,1,88.58,734.77Zm40.23-14.53c.14,2.74-.79,4-3,5.19a6.43,6.43,0,0,0-3.26,2.8h7.78a3.53,3.53,0,0,0,2.27-1c1.86-1.51,1.37-3.87,2-5.81.27-.78-.59-1.19-1.42-1.18ZM77.64,680.43a1.93,1.93,0,0,0,2.07.89c6.77.3,13.53.71,20.29,1.28,2.26.19,4.53.77,6.85.51,1-.11,1.51-.53,1.52-1.6s-.36-1.6-1.42-1.65-1.94-.18-2.91-.17c-5.45,0-10.9.06-16.36.17A61.24,61.24,0,0,0,77.64,680.43Zm57,47.05c2.9-.07,5.87.76,8.49-1.14.57-.42.78-.13.94.72s1.36.43,2.11.27c.52-.11,1-.79.76-1-1.43-1.11-.13-2.25-.21-3.36-.06-.91.34-2.2-.74-2.6s-2.77-.83-3.74.36C140.1,723.38,136.86,724.71,134.66,727.48Zm13.71,4.08c-1.13-3-1.14-3-3.51-.9-1,.9-2.21,1.66-2.65,3.54a10,10,0,0,1,5.23-.89,50.44,50.44,0,0,0,7.95-.35,2.34,2.34,0,0,0,2.42-2.4c-1.1-.69-2.55,1.35-3.38-.52-1.07-2.37-3.06-1.36-4.75-1.28C147.65,728.86,149.44,730.92,148.37,731.56ZM79.49,711.15c0-.26-.09-.52-.13-.78H73.93a2.24,2.24,0,0,0-1.07.17c-3,1.6-6.21.48-9.31.77-.91.09-1.3,0-1.86.86s-1,.83-1.67-.77c-.18-.43-.39-.49-.56-.47a15,15,0,0,0-6.6,2.21,61.11,61.11,0,0,0,13.55-.46C70.74,712,75.36,713,79.49,711.15ZM3.71,587C1.43,597.66.63,622.89,2.32,631,3.18,615.81,2.89,601.4,3.71,587Zm134.67,106.9a26.63,26.63,0,0,0,7,.2c2.46-.23,3.35-1.26,2.7-3.54-.45-1.62-2-1.61-3.2-1.67-1.78-.08-3.72-1.7-5.19-.46S139.21,691.87,138.38,693.92Zm20,44.24c12.41.9,24.4.12,27.82-4.53C177.1,737.09,167.66,736.7,158.38,738.16Zm-33.89-43c-1.2,0-2.41,0-3.61,0s-2.11.35-2.14,1.8a1.87,1.87,0,0,0,1.87,2.14c2.24.34,4.46.84,6.69,1.28.48.09,1.08.25,1.35-.16a5.08,5.08,0,0,0,.8-4.09c-.28-1.12-1.24-.95-2.06-1S125.46,695.18,124.49,695.19Zm-27.88,28.1c-2-.32-4,.74-6.2.61a1.32,1.32,0,0,0-1.52,1.23c-.06.92-.54,1.93.2,2.77.58.66,5,.79,5.82.21q2.1-1.43,4.15-2.9c.46-.33,1.2-.64,1-1.31-.23-.87-1-.84-1.79-.74C97.81,723.23,97.33,723.24,96.61,723.29Zm63.21,9.31c3.65.12,6.45-1.52,9.27-3.13.93-.53.92-1.23.74-2.14-.53-2.74-1.23-3.09-3.52-1.54-1.59,1.08-3.16,2.22-4.65,3.44A4,4,0,0,0,159.82,732.6Zm-23.33-41.83c-.45-1.24.81-3.18-1.72-3.53-3.24-.45-3.37-.45-3.8,2.87-.05.36-.14.72-.18,1.08-.37,2.86-.12,3,2.83,2.89a25.16,25.16,0,0,0,3.55-.48c1.2-.24.44-2.55,1.09-3.85.23-.45.26-1.32-.51-1.51s-.86.59-1,1.15S136.93,690.37,136.49,690.77Zm.63,7.53c.11-1.18.1-1.15-1.48-1.58-.2-.05-.17-.74-.41-.93-1.18-.95-4.15-1-4.61,0a6.78,6.78,0,0,0-.32,4.61c.32,1.19,1.55.87,2.46,1.05C136.77,702.29,136.77,702.29,137.12,698.3Zm65.12-371c.5,10.32,1.12,20.64,2.5,30.9C205,347.83,205.41,337.43,202.24,327.32ZM109.19,705.75c-.72,0-1.21,0-1.7,0-1.11-.06-1.86.23-1.93,1.56s.51,1.68,1.7,1.78c2.54.22,5.07.56,7.61.84,1.4.15,1.55-.83,1.62-1.86s-.27-1.58-1.39-1.68C113.05,706.23,111,706,109.19,705.75Zm5.69-21.93V684c1.21.06,2.43.15,3.64.16s1.64-.77,1.58-1.91c-.06-1,.11-2-1.35-2.08l-7.66-.24c-1.44,0-1.89.82-2,2.07a1.57,1.57,0,0,0,1.74,1.82C112.22,683.84,113.55,683.82,114.88,683.82Zm11.94,1.31c.49.07,1.32.2,2.16.29s1.27-.37,1.5-1.18c.73-2.51.15-3.45-2.55-3.76a40.45,40.45,0,0,0-4.27-.28c-1.73,0-2.61,1-2.7,3-.08,1.73,1.31,1.4,2.27,1.57S125.39,685,126.82,685.13Zm5.93-646.86c.65,1.23,1.9.87,2.86,1.2a.92.92,0,0,1,.7,1.08,1.38,1.38,0,0,1-.68.77,2.47,2.47,0,0,1-1.06.18c-1.84,0-2.5,1-1.61,2.54.58,1,.12,1.57-.14,2.31a2.1,2.1,0,0,0,1,2.47c.84.39,1.89-.31,2.22-1.36a33.17,33.17,0,0,0,1.45-5.22C137.94,39.24,135.85,37.54,132.75,38.27Zm-6,682.53a1.44,1.44,0,0,0-2-.46q-4.38,2.6-8.63,5.38a1.94,1.94,0,0,0-.69,2.84c.64.83,1.74.48,2.59-.18,2.6-2,5.2-4,7.82-5.9A1.81,1.81,0,0,0,126.71,720.8Zm26.41-6.39c1.06-.1,2.61.84,3-1.3.38-1.93-1-2.58-2.25-3.3s-2.38-.37-3.59-.41c-1.73-.06-2.3.82-2.35,2.47s.64,2.22,2.1,2.31C151,714.24,152,714.32,153.12,714.41Zm-29-10.23v-.08c1.09,0,2.18,0,3.27,0,.77,0,1.47-.19,1.58-1.13a1.42,1.42,0,0,0-1.35-1.76c-2.14-.4-4.25-.92-6.39-1.31s-2.52-.08-2.76,1.72c-.27,2,0,2.39,2.39,2.56C121.91,704.25,123,704.18,124.09,704.18ZM186.77,706c.65.53.07,1-.06,1.54-.76,3.1.3,6.08.64,9.1.06.44.08,1,.7,1.13a1.07,1.07,0,0,0,1.33-.91q.92-3.15,1.72-6.33c.07-.3,0-.92-.17-1-2.71-.84-1.38-3.21-1.88-4.87-.22-.74.25-2-1-2-1.38,0-1,1.36-1.26,2.23A5.66,5.66,0,0,0,186.77,706ZM109.67,25.16a276.75,276.75,0,0,0-29.37.78c5.43-.1,10.89.26,16.28-.76a5.08,5.08,0,0,1,2.5.28C102.66,26.61,106.17,26,109.67,25.16Zm22.52,655.08a13.89,13.89,0,0,0-.6,4.07c-.1,1,.44,1.44,1.43,1.69,4.92,1.26,6,.43,6-4.76a2.41,2.41,0,0,0-.21-.66c-1.62,1-1.1,2.87-1.69,4.76C137.09,680.9,137.09,680.9,132.19,680.24Zm-60.82,42c1.82,0,3.51.11,5.18,0,1.26-.11,3-2.56,2.63-3.7-.45-1.5-1.79-.82-2.77-.88-1.32-.07-2.66,0-4,.06-.73,0-1.47,0-1.64,1,2.34,0,4.5.81,7.24,1.16C75.62,721.14,72.75,719.33,71.37,722.26Zm113.51-.68c.06-1.86-.31-2.3-2.28-2.47a17.66,17.66,0,0,0-2.91-.06c-.86.06-2-.64-2.47.75s.36,2.07,1.32,2.72a17.16,17.16,0,0,0,2.16,1.33C181.83,724.38,184.85,722.7,184.88,721.58Zm-46.4,7.64c-7.2-.36-9.68,1-12,6.36C130.82,734.47,134.42,732.17,138.48,729.22ZM70.71,699.55c1.68-6.77,1.09-5.32-3.89-6.23-.71-.13-1.43-.17-2.15-.23s-1.47-.06-1.72.85a1.45,1.45,0,0,0,.87,1.77Zm51,37.35,0-.42c-5,0-10,0-15,0-2.47,0-2.47,0-3.34,2.9ZM144,729.22c-2.64-1.64-4.23.42-6,1.68s-3.92,2-5.38,4C139.48,734.68,139.9,734.46,144,729.22Zm15.72-33.53c-.62,2.94-1.59,5.84-1.59,8.93a7,7,0,0,0,.06,1.45c.3,1.51,1.58,1.79,2.76,1.69s.87-1.26.68-2C160.85,702.51,161.39,699,159.76,695.69Zm-6.89-1.46a14.25,14.25,0,0,0,4.55-.16,1.36,1.36,0,0,0,1.33-1.45,1.31,1.31,0,0,0-1.16-1.23c-2-.47-4-.91-6.06-1.22s-2.38.17-2.63,2.31,1.15,1.72,2.34,1.75Zm3,32.75c1.91-1,3.42-1.68,4.9-2.47a1.85,1.85,0,0,0,1-1.8c0-1.75-.56-2.21-2.73-2.66-1.63-.33-2.64.06-3,1.72A16.76,16.76,0,0,0,155.89,727Zm-84.5-19.84c3.06.2,5.74-.66,9.29-.87L71.86,702C71.68,703.9,71.55,705.41,71.39,707.14ZM87.05,27.19a31.69,31.69,0,0,0,15.18.25C98.5,27,92.81,27.19,87.05,27.19Zm38.53,711.22c4.5.71,12,0,14.41-1.23C134.71,737.53,130,735.86,125.58,738.41Zm46.07-10.57a11.83,11.83,0,0,0,2.6-.56c1.28-.61,1.27-1.94,1.31-3.14,0-.54-.45-1-.92-.82-1.78.83-3.16-.89-5.46-.73C171.07,724.09,170.72,726.05,171.65,727.84Zm-11.94-19.31c-1.75,0-1.89.75-2,1.46-.12.87,1.88,4.2,2.72,4.49s2.06.3,2.39-.83C163.47,711.52,161.11,708.52,159.71,708.53ZM206,559.58c-.29,6.74-1.14,13.43-.68,20.15A70.57,70.57,0,0,0,206,559.58ZM96.46,29.49c7.41,1,14.73-.48,21.74-.64C111.15,28,103.82,29.3,96.46,29.49ZM85.51,55.93c-3.65-1.24-7.37-2.29-10.32-4.94-.43-.39-.86-.08-1.19.35a2.26,2.26,0,0,0-.65,2.29C77.33,54.66,81.06,57,85.51,55.93ZM137,712.35l9-3.13c0-.25-.05-.51-.08-.76-2,0-3.95,0-5.93,0C137,708.5,137,708.51,137,712.35ZM133.84,29.1c-3-1.25-5.51-1.4-7.93-1.89-1.62-.33-2.79.06-3.18,1.89Zm6.36,683.4c2,1.6,4.08.93,6,.92,1.35,0,.93-1.47.94-2.35,0-1.07-.8-1.06-1.54-.77C143.84,711,142.07,711.74,140.2,712.5Zm-55.7,5.13v0c-1,0-1.92,0-2.88,0a.94.94,0,0,0-.83,1,.75.75,0,0,0,.94.78,29.24,29.24,0,0,1,5.69,0,.79.79,0,0,0,.88-.88,1,1,0,0,0-.92-.94C86.42,717.6,85.46,717.63,84.5,717.63ZM6.88,374.75c1.61-3.88,1-7.84,1.15-12.63A32.66,32.66,0,0,0,6.88,374.75ZM105,718.44c3.17-.81,6.61,1.39,9.71-.62C111.43,717.59,108.17,717.14,105,718.44ZM130,25.93c1.91.72,3.6,1.83,5.58,1.55.44-.07,1,0,1-.68s-.3-1.22-1-1.19C133.77,25.67,131.91,25.82,130,25.93ZM97.1,719.24a6.88,6.88,0,0,0,2.07.06c1.34-.39,3.86,1.15,3.81-1,0-1.49-2.66-.53-4.1-.74C97.82,717.36,96.93,717.73,97.1,719.24Zm36-14.32c-1,.61-3-.91-3.13,1-.06,1.46,2,1,3,1s3.12,1.1,3.13-1C136.11,704.16,134.15,705.4,133.06,704.92ZM81.75,694l-7.19-2.08a1,1,0,0,0-1.23.47,1,1,0,0,0,.75,1.4C76.57,694.15,79,695.29,81.75,694Zm64.77,13.2c-2.46-1.92-5.25-1.49-8-1.6a.75.75,0,0,0-.86.88c.06.63.59.7,1,.7C141.34,707.19,143.93,707.18,146.52,707.18Zm-18.1-1.67a25,25,0,0,0-9.94-.17C121.78,705.83,125,707.09,128.42,705.51ZM144.51,739c3-.17,6,1.5,10.05.31A27,27,0,0,0,144.51,739ZM82.65,723.09c1.32,0,2.64,0,4,0,.47,0,1-.12,1-.72s-.61-.93-1.24-1C84.81,721,84,722.84,82.65,723.09Zm67.17-16c2.14,1.17,4.63,1.31,6.66,2.6.5-.85.45-1.65-.1-1.84C154.3,707.05,152.18,706.31,149.82,707.05ZM94.67,717.68c-1.53,0-2.85,0-4.18,0a1,1,0,0,0-.86,1c-.06.69.49.73.94.79A4.36,4.36,0,0,0,94.67,717.68Zm41.25-13.56,0-.81a14.94,14.94,0,0,0-4.73-1.31c-.69-.09-1.1.4-1.24,1.06-.18.82.31,1.05,1,1.05Zm-59.08,20.1a7.46,7.46,0,0,1-3.06-.63,3.21,3.21,0,0,0-3.39.41C75.13,725.09,75.13,725.09,76.84,724.22ZM115,738.89c2.88-.07,5.82.64,8.63-.26,0-.26,0-.52-.07-.78ZM85.6,2.7c3-.17,5.53.67,8.23-1.07C90.87,1.12,88.44.92,85.6,2.7Zm6.66,719.44c3.08.8,6-.58,8.95-.8C98.16,720.88,95.21,721.58,92.26,722.14Zm30.49-683.8h7.68C127.85,37.44,125.32,38.16,122.75,38.34Zm-18.91,671.1H97.1C99.34,709.76,101.55,710.66,103.84,709.44ZM128.09,41.79c0,.22,0,.44,0,.65.75.34,1.49.68,2.25,1a.75.75,0,0,0,1.11-.49.83.83,0,0,0-.6-1.11A20.86,20.86,0,0,0,128.09,41.79Zm-57.87,677c-2.49-.91-3.94-.36-6.19.72C66.37,719.27,67.89,719.71,70.22,718.74ZM56.08,692.66l4.07,1.59c.62.24.89-.15,1.05-.62s-.12-.94-.68-1C59.22,692.63,57.92,692.66,56.08,692.66Zm36,37.41c-3.8-1.14-3.83-1.12-3,2.55A13.47,13.47,0,0,0,92.08,730.07Zm6.79-34.52c2,1.81,4.17,1.18,6.24,1.13a.61.61,0,0,0,.44-.81.78.78,0,0,0-.77-.58A20.21,20.21,0,0,0,98.87,695.55Zm26.31-674c-1.44-.9-2.75-.57-4.82,0ZM52.55,711c-2.26.36-3.92.12-5.29,1.85C49.33,713.23,50.77,712.8,52.55,711Zm21.59-3c2.12.15,4.23.86,6.21.15,0-.25,0-.49-.07-.74ZM48.08,731.68c3.21.44,3.38.27,2.5-2.51A5.13,5.13,0,0,0,48.08,731.68Zm86.13-13.92c-1.49-1.26-3.2-.84-4.86-.69ZM77.94,27.24a9.45,9.45,0,0,1-4-.86C75.34,28.41,76.69,27.61,77.94,27.24Zm61.17,1.67a3.09,3.09,0,0,0,.36-3.86.7.7,0,0,0-.65,0c-.92.79-.25,1.79-.28,2.7C138.53,27.93,138.72,28.13,139.11,28.91ZM70.35,729.34c1.67-1.17,2.8-1.73,3.49-3.17C71.81,726.05,70.43,726.33,70.35,729.34ZM136.43,57.59c2,0,3.5-.07,4.9-1.21A4.78,4.78,0,0,0,136.43,57.59ZM85.61,695.81c1.7,0,3.24,1.63,5.43.59C89.16,695.15,87.36,695.67,85.61,695.81ZM138,716.2c2,0,4,.48,6.15.09C142.05,715.85,140.05,716.37,138,716.2Zm0-693.92c1.68,0,1.72,1.93,3.15,1.48C140.77,22.67,140.3,21.66,138.07,22.28ZM81.7,28.88h5.14A11,11,0,0,0,81.7,28.88ZM172.8,719c.63.8,1.82.57,2.36,1.43.33.52.6.06.78-.17.33-.39.43-.95-.05-1.2A3.42,3.42,0,0,0,172.8,719ZM29.09,724.17a3.46,3.46,0,0,0,3.09-2.2Zm109.77-3.56c-3-.37-3-.37-2.85,1.8Zm-79-5.81a24.77,24.77,0,0,0-5.38,0A22.39,22.39,0,0,0,59.87,714.8ZM205.16,360.31a11.74,11.74,0,0,0,.25,5.27A8.9,8.9,0,0,0,205.16,360.31ZM7.07,380.18c-.67,1.54-.2,3,0,4.5C7.09,383.16,7.86,381.67,7.07,380.18ZM61.16,726c1.18-.41,2.32-.53,2.32-1.73,0-.63-.92-.76-1.43-.7C60.62,723.79,60.94,724.84,61.16,726Zm79.55,9.7c-1.89-.18-3.27-.38-4.61.36C137.47,736,138.86,736.7,140.71,735.73Zm-40.89-21v.11l3.45.17v-.28ZM134.53,34.14s-.45-.07-.94,0-1,.35-.8.92.9.7,1.46.59C134.56,35.57,134.76,35.17,134.53,34.14ZM25.16,704.57c-.62,2.74-.62,2.74.49,4.71C25.77,707.61,26.23,706.27,25.16,704.57Zm65.7.79c1.66.33,2.67.5,3.76-.14A5.84,5.84,0,0,0,90.86,705.36Zm82.87,24.81c-.22-.28-.28-.86-.87-.79-.29,0-.27.27-.13.54s.4.87.92.87C173.88,730.79,173.92,730.47,173.73,730.17ZM23.32,709.32c.8-1.27.32-2.35-.1-3.6A3.37,3.37,0,0,0,23.32,709.32ZM156.17,219.27a2.35,2.35,0,0,0,.36,3A2.63,2.63,0,0,0,156.17,219.27ZM87.06,708.92a1.87,1.87,0,0,0,1.71.06A2.21,2.21,0,0,0,87.06,708.92Zm-52,9.33c0-.41-.22-.61-.54-.73-.53-.2-.51.26-.57.54a.54.54,0,0,0,.42.73A.62.62,0,0,0,35,718.25ZM69.1,723.6a1.38,1.38,0,0,0-.28-.13.84.84,0,0,0-.3.08c.09,0,.18.12.27.12A.92.92,0,0,0,69.1,723.6Zm123-19.53c.08-.08.23-.15.23-.23s-.12-.18-.2-.27l-.26.36Z"/><path class="cls-1" d="M131.83,82.1c-1.13-1-2.62-1.2-4-1.71a4.26,4.26,0,0,1-2.41-1.54c-.41-.69-1.35-1.5-.51-2.23,1.18-1.05,1.22.43,1.64,1,1.19,1.64,3,1.79,4.74,2.23,1.29-1.72-.1-3.07-.35-4.52-.19-1-1.07-.76-1.74-.87a29.13,29.13,0,0,1-6.07-1.2,12.15,12.15,0,0,1-2.33-1c-1.38-.92-1.2-1.87.32-2.63.72-.36,1.72,0,2.33-1-1.42-.69-2.87,0-4.23-.32-2-.47-4.43.39-5.91-1.93-.22-.36-1.13-.37-1.72-.37-3.29,0-6.58.06-9.86,0-1.61,0-2.29.48-2.44,2.28Q98.23,81,97.75,93.8c-.15,3.76-.22,7.54-.32,11.31l-1.32-.27c1-6.83.56-13.71,1-20.56.16-2.41-.08-4.9.44-7.22.78-3.41-.88-6.67-.15-10,.2-.91-.63-1.19-1.36-1.35s-1,.47-1.07,1.06c-.44,2.74-.84,5.49-1.26,8.24-1.12-.72-.68-1.86-.76-2.86,0-.34.19-1.19-.57-.68-1.25.84-.29-.69-.75-.62.34-.91.75-1.8,1-2.74A4.82,4.82,0,0,1,98,64.18c9.72.27,19.44.49,29.16.88,1.47.06,3.23-.29,4.46,1.15a1.11,1.11,0,0,0,1,.32c3.07-1.34,3.1,1.16,3.65,2.9.47,1.5.53,3.19,1.22,4.57,2.21,4.42,1.17,9,1.06,13.55-.13,5.59,0,11.19.06,16.79.12,11.32.16,22.65,2.17,33.84a256.48,256.48,0,0,1,3.8,42.13,122,122,0,0,0,1.18,16.75c1.46,9.75,2.06,19.58,3.1,29.37.21,2,.68,4.07,1,6.11a.93.93,0,0,1-.65,1.15c-.64.15-.83-.38-.93-.83-.35-1.54-.71-3.09-.95-4.65-1.26-8.29-2.84-16.53-3.68-24.89A1.6,1.6,0,0,0,143,202c-.79,1-.51,2.29-.42,3.38.68,8.5.31,17,1.3,25.53a53.45,53.45,0,0,0,1.93,9.64c.18.57.37,1.28-.4,1.54s-1-.41-1.11-1c-.34-1.67-.76-3.33-1-5a206.25,206.25,0,0,1-1.89-28c0-3.4.07-6.81-.16-10.21a14.46,14.46,0,0,1,.45-5.37c.2-.66.55-1.21.08-2a15,15,0,0,1-1.53-8c.14-3.55-.63-7-.94-10.51,0-.28-.4-.52-1-1.24-.37,5.25-.7,10-1,14.78,1.29-11.31-1.58-22.37-2.35-33.73,2,1,0,2.42.78,3.53.88,1.3.08,2.86.28,4.3s-.43,2.65.47,4.65c.88-3.05,3.23-4.58,2.62-8-1.24-6.8-1.44-13.77-2.64-20.6a3.76,3.76,0,0,0-1-2.78c-.44,4.58-.75,8.75,0,13-.18-2.31.27-4.7-.69-6.86-1.26-.09-1.31.79-1.55,1.42-1.13,3.09-2.32,6.15-3.31,9.29a158.08,158.08,0,0,1-5.25,15.17,26.66,26.66,0,0,0-.62,19.6,79,79,0,0,1,3,11.65,2.74,2.74,0,0,1-.18,2.46c-1.44-7.45-4.67-14.06-5.45-21.33a20.73,20.73,0,0,1,1.26-10.75,102.05,102.05,0,0,0,6.07-17.58A55.32,55.32,0,0,1,132.74,138a21.53,21.53,0,0,0,1.64-12.14c-.7-5-.35-10-1.12-14.86a1.09,1.09,0,0,0-.61-1.13,1.38,1.38,0,0,0,0-1.51c1.4-.43,1.94,0,2.05,1.54.4,5.19.86,10.38,1.45,15.55.74,6.63,1.58,13.25,2.46,19.86s1.85,13.49,1.69,20.3c-.06,2.47,1.48,4.57,1.17,7,0,.12.33.35.53.4a.66.66,0,0,0,.79-.53,7.87,7.87,0,0,0,.11-1.45,143.14,143.14,0,0,0-1.25-19.3c-1-7.45-2.16-14.89-3.2-22.33-.24-1.68-.33-3.39-.45-5.08s-.22-3.4-.29-5.11a33.42,33.42,0,0,1-.05-5.1c.2-1.77-.6-3.4-.31-5.24.14-.92-.73-2.6-.3-3.52.84-1.84-.9-3-.6-4.77s-.15-3.89-.29-6.07c-1.45,1.42.1,3.6-1.94,4.81a27,27,0,0,1,.4-8.57,22.24,22.24,0,0,0,.94-4.63c0-2.7.1-2.69-2.48-3.45A8.17,8.17,0,0,1,131.83,82.1Zm4.53.06a22.44,22.44,0,0,0-1.77-13c-.26-.59-.63-1.06-1.36-.91-.53.11-.72.6-.95,1a4.72,4.72,0,0,0-.13,2.5c0,1.79,2.26.54,2.71,2.13-2.44.72-1.5,2.8-1.76,4.48C132.75,80.61,133.84,81.72,136.36,82.16ZM122.5,71.23a12,12,0,0,0,8.27,1.5c-.19-3.75-.21-3.83-3.33-3C125.82,70.09,124,70,122.5,71.23Zm20.52,114c.53-3-.4-5.93-.57-8.91A22,22,0,0,0,143,185.24Zm3.5,26.38c-.05-.16-.08-.66-.3-.76-.39-.18-.48.26-.45.55s.07.84.27.93C146.43,212.52,146.51,212.12,146.52,211.62Zm-4.13-15.33c.37-.08.45-.37.5-.68a.85.85,0,0,0-.47-1.08s-.3.32-.37.52A1.13,1.13,0,0,0,142.39,196.29ZM136.05,93.14c0-.43.1-.75.12-1.07,0-.09-.11-.18-.16-.27a3.8,3.8,0,0,0-.27.78C135.73,92.71,135.89,92.87,136.05,93.14Z"/><path class="cls-1" d="M146.2,562.21l-6.54.33a3,3,0,0,0-1.95.79c-1.87,1.63-2,1.58-4.15-.63,2.51-1.21,5.25-.87,7.77-1.5.75,0,1.53.19,2.18-.37,2.48,0,5,0,7.45-.13,1.14-.07,2.53-.2,2.1-2,.82.07,1.64.17,2.46.21,4.45.23,4.45.23,4.24-4.27,0-.12,0-.23,0-.35.2-.29.6-.6.58-.87-.38-3.95.5-7.89.19-11.84h1.79c-.78,3.43-.7,6.94-.88,10.43,0,1.1.23,2.08,1.49,1.95,3.79-.4,7.67,0,11.36-1.26l2.15-.1,1.67-.3c.3.23.51.08.71-.15,1.46.13,3-.45,4.86.33-2.16,1.29-4.14,1-6,1.23-1.24.13-2,.45-1.94,2,.14,2.42-.13,4.88.21,7.26s-.93,5.11,1.52,7c.09.07-.16.61-.3.92-1.53,3.42-1.17,5.5,1.43,7.88-.39,1.09-2.26.77-2.23,2.44.1,4.84,0,9.69,0,14.54,0,1.19.49,1.74,1.71,1.81a45.15,45.15,0,0,0,9.37-.2,11.27,11.27,0,0,0,4.64-.19c-1.44-1.84-3-.91-4.57-.63.28-1.17-.21-1.63-1.36-1.49a1.78,1.78,0,0,0,1.36-1.21v0l1.32.19c1.28,1.25,3.18,1.09,4.6,2,.5.33,1.08.67,1,1.39s-.77.85-1.35,1c-1.47.37-3.55-.41-4.29,1.19-.61,1.32,0,3.14-.35,4.66-.44,2,.94,3.78.49,5.73-.5.52-1,1-1.48,1.57l-2-1c2.62-2,2.44-4.71,2.4-7.41-.07-4.4-.06-4.4-4.26-4.41-1.57,0-3.16,0-4.73-.06-1.89-.1-2.73.87-2.52,2.59.51,4.36,0,8.72,0,13.08,0,3.61.1,7.22.15,10.84a1.68,1.68,0,0,1-.67,0c0-5.55.11-11.1.09-16.64,0-2.65-.28-5.29-.27-7.93,0-1.18-.12-1.95-1.51-1.75-2.74.41-5.52-.7-8.23.49-.17-1.42.56-1.6,1.51-1.61,2.06,0,4.12-.06,6.18-.07,1.34,0,2-.59,1.92-2q-.12-3.27,0-6.54c0-1.46-.68-1.95-2-1.87a53.65,53.65,0,0,0-11.65,2.11c1.76,1.51,3.86,1.05,4.91,1.8-1.24-.55-3.08.16-4.82-.11-2.05-.31-2.64.52-2.53,2.31,0,.61.17,1.2.25,1.8l-1.52.19c.23-6.37.74-12.72.71-19.1a.62.62,0,0,0-.48-.85h0c-.36-.66-1-.51-1.54-.45a3.18,3.18,0,0,0-2.23-.14l-1.42-.09c-1.29-1.08-2.84-.58-4.29-.7-1.44-.61-3-.4-4.46-.42-2.92-1.32-2.9-1.32-2.74-4.65a15.51,15.51,0,0,0-.28-1.75,11.79,11.79,0,0,1,.24-1.79c.2,5.54.2,5.53,5.44,5.62a18.17,18.17,0,0,0,6.05-.63,11.35,11.35,0,0,0,1.42.23c4.64.24,5.54.16,5.28-4.58a23.55,23.55,0,0,1,.05-2.52c.06-1.19-.44-1.81-1.67-1.78l-5.77.13-1.58,0C149.23,561.75,147.67,561.41,146.2,562.21Zm8.31,9.86a47.55,47.55,0,0,0-9.24.06c3.09.27,6.09,1.31,9.24,1.06a6.1,6.1,0,0,0,3.39.77,1,1,0,0,0,1.08-1.12c0-.67-.28-1.22-1-1.13C156.82,571.86,155.6,571.34,154.51,572.07Zm20.71,4.59v-4.22c0-1.16-1.63-.79-1.67-1.52-.05-1,1.51-.41,1.82-1.3a2,2,0,0,0,.18-.69c-.18-4.13-.36-8.25-.58-12.37-.1-1.72-.93-2.65-2.82-2.46-2.91.3-5.82.58-8.73.67-2,.07-2.32,1-2.45,2.77-.16,2.13,1.17,2.05,2.49,2.17,1.94.17,3.89.26,5.83.44.92.09,2,0,2.61,1.43-1.77.74-3.6.19-5.31.16-7.24-.12-5.35-.24-6.33,5.75a5.7,5.7,0,0,0-.06,1.09c0,1.07.36,1.87,1.62,2,2.37.23,4.71,1,6.15.56-1.31.1-3.59.27-5.87.46-.86.07-1.77.1-1.79,1.32s.81,1.65,1.87,1.79C166.38,575.29,170.5,576.36,175.22,576.66Zm-.47,1.35c-4.72-1-8.64-1.74-12.54-2.56-1.35-.28-2.08.11-2.16,1.58-.17,3.28-.39,6.55-.61,9.81-.1,1.58.68,2,2,1.44,3.15-1.45,6.54-1.72,9.87-2.35,1.37-.26,2.9.22,4-.54a24.79,24.79,0,0,1,0-3.13c.28-2-.68-2.51-2.5-2.42-2.41.12-4.82,0-7.23,0C168.23,578.5,171.27,579.63,174.75,578Z"/><path class="cls-1" d="M111.71,655c-12.35.58-24.69-1.36-37.41-.49,2.4,1.62,4.93,1.49,7.25,1.92,7,1.3,13.85,3.34,20.92,4.35a16.21,16.21,0,0,1,3.46,1.11c.64.24,1.58.44,1.33,1.39s-1.14.78-1.84.8a131.12,131.12,0,0,1-13.15-.31c-4.86-.35-9.73-.53-14.6-.74a6.6,6.6,0,0,0-3.47.39c2.73,1.88,5.91,1.4,8.74,2.15s5.59,1.16,8.34,2c-2,.43-3.84-.41-5.74-.68-3.38-.49-6.75-1-10.12-1.46a7.63,7.63,0,0,1-3.4-1.23c-.51-.36-1-.82-.85-1.48a1.36,1.36,0,0,1,1.4-1,65.21,65.21,0,0,1,8.39,0c5.28.62,10.59.45,15.87.9,2.11.18,4.24.73,7,0-4-1.95-7.68-2.53-11.35-3.22q-9.14-1.71-18.29-3.31a3.65,3.65,0,0,1-3.3-2.51C84.73,651.88,98.18,654.55,111.71,655Z"/><path class="cls-1" d="M159.31,268.91c-2.92,1.38-6.24.79-9.2,1.83.79,2.08.8,2.22-1.38,2.67q-8.91,1.88-17.87,3.56c-1.45.27-2.93.3-4,1.53a1.31,1.31,0,0,1-1.64.34c-.45-.17-.93-.34-.86-.95a.83.83,0,0,1,.75-.69l8.55-1.79c4.09-.85,8.33-1.15,12.18-3.11-9.76-.54-19.4,1.2-29.44.89,1.36-1.94,3.39-2.21,5.28-2.69,3.48-.89,7-.4,10.53-.35a95.23,95.23,0,0,0,19.58-1.52,72.7,72.7,0,0,1,7.39-.66C159.26,268.28,159.28,268.6,159.31,268.91Z"/><path class="cls-1" d="M84.17,208.74c-1.3,1.68-.86,3.76-1.08,5.62-.55,4.65-1.11,9.24-.52,14.06.48,3.94-.58,8.19-.95,12.3-.18,2.06-.45,4.11-.75,6.15-.14.92-.28,1.93-1.69,2.26-.68-3.89,1.25-7.56.73-11.75-1.55,1.75-1.54,3.83-2.66,5.37-.36.5-.12,1.57-1.18,1.31-.77-.18-.52-1-.49-1.54A135.6,135.6,0,0,1,76.79,228c.22-1.5,1-3-.45-4.44-.46-.45,1.26-4.55,2-5.06s1.29-.24,1.34.49a10,10,0,0,1-.4,2.5,72.86,72.86,0,0,0-2,13.31c0,.68-.31,1.44.62,2,1.93-1.37,2.28-3.52,2.52-5.62.43-3.74.63-7.5,1-11.24s1-7.67,1.44-11.51Z"/><path class="cls-1" d="M129.68,643.63c-15.72-1.4-31.45-2.59-47.33-.78,1.56,1.95,1.56,1.95,4.72,2.63-2.07-.31-4.22-.05-6.18-1-.58-.29-1.12-.66-1.06-1.33A1.33,1.33,0,0,1,81.09,642a24.6,24.6,0,0,1,3.56-.68c5.44,0,10.82-.69,16.33-.1,3.9.42,8,.14,12,.26q9.3.28,18.52,1.35a25.85,25.85,0,0,0,2.92,0c1.76,1.23,3.72.7,5.62.6.79,0,.79-.75.8-1.36a.5.5,0,0,0,.56,0l.72.06c2.21,1.22,4.94.91,7.39,2.38-1.46.89-2.71.48-4,.35-3.43-.36-3.43-.34-3.75,3.34-.38-3.77-.37-3.84-4.13-4-1.78-.08-3.56-.84-5.35-.08C131.56,643.08,130.58,643.62,129.68,643.63Z"/><path class="cls-1" d="M33.18,604.9l1.22.13c0,.34.07.67.11,1-.4.33-.41.66,0,1-.22,3.64.44,7.22.82,10.8a155.29,155.29,0,0,1,1.09,20,59.59,59.59,0,0,1-.59,6.52,1.42,1.42,0,0,1-1.41,1.41c-1,0-1.09-.89-1.13-1.58-.23-4.6-.43-9.2-.57-13.81s-.11-9-.29-13.44C32.29,612.86,33.06,608.9,33.18,604.9Zm1.31,12.27c-.9.65-1,1.12-1,1.61.07,7.28.14,14.56.25,21.84,0,.62.45,1.12,1.43,1.11C36.29,633.66,34.9,625.65,34.49,617.17Z"/><path class="cls-1" d="M184.56,487.11l1.7.07c-1,8.49-.16,17,.37,25.42s.52,17,.73,25.49c.1,4-.23,8,.42,12l-1.11-.14c-.48-2.54-.17-5.1-.21-7.65-.14-8.38.1-16.79-.79-25.12-.43-4,1.11-8.23-1.63-11.9-.22-.3,0-1,.09-1.43C185.1,498.28,184.67,492.69,184.56,487.11Z"/><path class="cls-1" d="M155.05,260.78c-1.71-2.38-2-5.14-2.43-7.88s.34-5.59-.8-9.11c-1.15,6.28-1,12.05-3,17.57-3.07-5.54-5.59-11.12-5.63-17.53a78.07,78.07,0,0,0,5.24,14c1.28-3.6,1.35-7.33,1.64-11a29.16,29.16,0,0,1,1-5.36c.2-.71.62-1.41,1.53-1.22a1.43,1.43,0,0,1,1,1.37,19.77,19.77,0,0,1,.12,2.18c0,2.92-.08,5.84.06,8.75A54.2,54.2,0,0,0,155.05,260.78Z"/><path class="cls-1" d="M172.49,287.68c-1.65-5.51-3.54-10.91-6.77-15.63-1.38.49-.7,1.73-1.77,2.23-.15-1.6-.95-3.57.71-4.24s2.16,1.52,3,2.61A11.34,11.34,0,0,1,169,275.2c2.52,6.39,5.3,12.68,6.75,19.44l-.67-.35c-.41-3.4-2.15-4.86-5.74-5.07-6.17-.37-12.29-1.5-18.51-.62-1.29.18-2.71.26-3.71-.92a.69.69,0,0,1,0-.68c1.18-1.17,2.29-.48,3.6-.08a14.17,14.17,0,0,0,4.7.29c5.49-.3,10.86.7,16.27,1.33C172.72,288.89,173,288.64,172.49,287.68Z"/><path class="cls-1" d="M70.37,224.33c-1.25.23-1.74-1.12-2.77-1.35-1.52-.37-1.06.81-1.18,1.53h-.1c-1.93,2-1.5,4.79-2.55,7.07l-1.27.6c3-7.9,5.82-15.86,8.25-24a19.78,19.78,0,0,0,.8-5c0-1.57.72-2.71,2.79-3.56A247.34,247.34,0,0,0,70.37,224.33Zm-2.6-2.16c.28-.17.59-.35.5-.74,0-.2-.14-.46-.29-.53-.43-.22-.5.2-.6.46S67.5,222,67.77,222.17Z"/><path class="cls-1" d="M188.86,371.32a127.11,127.11,0,0,0-13.59,2c-1,0-2.05-.21-2.67.71-1.21,1.81-2.18.44-3.5,0,1.41-1.78,3.3-1.36,4.83-1.55,2.38-.3,3.87-1.06,3.9-3.67a8.3,8.3,0,0,1,.55-1.77c.05.92,0,1.42.1,1.91.14.91-.8,2.39,1.13,2.42,1.51,0,3-.14,3.14-2.16,0-.58.19-1.15.26-1.61.38-.2.33-.05.42.27.23.93-.65,2.4,1,2.63.86.12,2.45-2.17,2.31-3.3-.49-4-1.05-7.9-1.59-11.85a29,29,0,0,0-.4-4.93c-.15-2-1-4.15.44-6.06.62,7.58,1.42,15.15,2.64,22.66.21,1.31.42,2.37,2.1,2.18a.88.88,0,0,1,1.05.76c0,.86-.71.76-1.26.91A4.89,4.89,0,0,0,188.86,371.32Z"/><path class="cls-1" d="M66.06,674.15c1.09,1.19,2.67.49,3.93,1.76a13.5,13.5,0,0,1-5.2-.35A1.71,1.71,0,0,1,63.45,674c0-.92.84-1.12,1.54-1.22a72.64,72.64,0,0,1,9.43-1c6.93-.14,13.86-.42,20.78-.65.84,0,1.73.08,2.27-.82a4.78,4.78,0,0,0-3.13-1.61,7.72,7.72,0,0,1,1.73-.21,8.51,8.51,0,0,1,2.1.47,3.81,3.81,0,0,1,2.15,1.6c-1,1.48-2.57,1.55-4.08,1.61-7.55.29-15.09.49-22.63.8A22.16,22.16,0,0,0,66.06,674.15Z"/><path class="cls-1" d="M79.33,113.89c0,2.35.12,4.7,0,7-.37,6.65-.85,13.29-1.29,19.93a23.2,23.2,0,0,1-.27,2.51.59.59,0,0,1-.81.49c-.21-.08-.53-.22-.55-.37-.46-2.47-1.53-5.09-.21-7.41a14.36,14.36,0,0,0,1.59-7c.11-4.07,1-8.09.51-12.2a10.68,10.68,0,0,1,.5-3.05Z"/><path class="cls-1" d="M158.71,368.87c-1.33.34-1.17-.59-1.29-1.42-.17-1.28.56-2.94-1.34-3.58,1.61-10.46.37-20.89-.72-31.43,1.76.27,1.55,1.49,1.57,2.31.19,8.25,1.62,16.42,1.24,24.7A45.73,45.73,0,0,0,158.71,368.87Z"/><path class="cls-1" d="M176.45,380.74c3.28-.08,6.44-1,9.66-1.43,1.27-.18,2.3-.65,1.74-2.4a1.9,1.9,0,0,1,1-1.81c0,.79-.3,1.7.73,2.15s1,1.2.75,2.08c-2.13,1.36-4.6,1.49-7,1.71a31.77,31.77,0,0,0-5.52.88c.52.95,1.77.57,2.32,1.18.83.9-.38.66-.68.94-.91-.09-2.05-.66-2.49.64a19.93,19.93,0,0,0-.94,4.25c-.22,2,.43,2.44,2.53,2.34,1.43-.06,2.79-1.16,4.77-.25l-5.65,1.59c-1.12.32-2.1.75-2,2.19l-.36,0-.35.08c-.61-.54-2-.62-.82-2,2.65-3.27,2.69-6.6.54-10C173.34,380.66,175.93,381.5,176.45,380.74Z"/><path class="cls-1" d="M27.56,525.05l-.94-.27c-.11-4.7-.39-9.42-.31-14.12.11-6.53.49-13.06.74-19.59.12-3,.19-6,.28-9a4.87,4.87,0,0,1,.54,0c-.14,5.18-.21,10.37-.43,15.54-.36,8.56-.56,17.12-.18,25.69A13.34,13.34,0,0,0,27.56,525.05Z"/><path class="cls-1" d="M156.49,278.75c-.51,2.26-2,2.14-3,2.65-.43.22-.46.17-1.49,1.93a.93.93,0,0,1-.82.46c-3.74.4-7.48.81-11.22,1.18a3.3,3.3,0,0,1-1.42-.24c-.56-.21-1.19-.49-1-1.28.14-.58.69-.59,1.17-.59A42.91,42.91,0,0,0,156.49,278.75Z"/><path class="cls-1" d="M156,646.39c-.54,1.27.69,1.75,1.16,2.56l-.54,1.55c-.19.12-.5.2-.53.35-.1.43.19.61.59.62-.35,4-.11,8-1,11.94-.07.34-.39.61-1.07.47-.57-1.12-.27-2.46-.2-3.69.23-4.72.09-9.46.87-14.14a11.94,11.94,0,0,0-.07-2.53h.68a.76.76,0,0,0,0,.7A2.77,2.77,0,0,0,156,646.39Z"/><path class="cls-1" d="M133,231.54c1.18,3.45,1.76,7.09,2.92,10.56s1.93,7,2.91,10.57C136.27,249.7,132.15,235.26,133,231.54Z"/><path class="cls-1" d="M182.37,332.65c.95,3.84.41,7.84,1.31,11.7.22.94.5,2.18-.67,2.93-.69-4.39-1-8.82-2.34-13.11a11.15,11.15,0,0,1,.39-7.52C182.92,328.57,181.24,330.9,182.37,332.65Z"/><path class="cls-1" d="M191,402.81h-.32l-.31.08c-.46-.17-.82-.12-.94.44a.37.37,0,0,0-.36-.24c-3.21.82-3.22.82-3.21,3.8,0,.82.06,1.65.09,2.47l-.79.15a15.09,15.09,0,0,0,.09-4.45c-.51-1.25-1.12-.64-1.73-.1l-3.87,1.15a8.6,8.6,0,0,1,4.12-2.77c.83-.34,2.08-.62,1.77-1.88-.51-2,.62-4,0-6l.92-.14c-.1,1.38-.68,2.61-.35,4.16.65,3,.43,3.06,3.59,2.22l1.33-.13C191,402,191,402.39,191,402.81Z"/><path class="cls-1" d="M82.1,76.65l-2.21.41c-.22-1.3-.43-2.6-.65-3.89l1.28-.6-1.28-.69a3.3,3.3,0,0,0,0-2.83l0-.18c.77-1.38-.2-3.1.95-4.73a6.23,6.23,0,0,1,2.26,4.93Q82.28,72.85,82.1,76.65Z"/><path class="cls-1" d="M153.14,603.45c.22-.08.45-.14.67-.2-.14,3.85-.23,7.72-.47,11.57a12.57,12.57,0,0,1-1.58,6.25c-.38.58-1,.88-1.51.44a.87.87,0,0,1,.09-1.51c2-.7,1.84-2.56,1.93-3.94C152.54,611.86,153.51,607.7,153.14,603.45Z"/><path class="cls-1" d="M54.33,252.53c.37.24,0,1.73,1.08.73.72-.64.89-1.93,2.23-1.82-.86,1.69-2,3.26-2.11,5.26a.85.85,0,0,1-.11.34c-.66,1.41-1.73,3.54-3,3-1.77-.74-.44-2.68.16-4S53.34,253.49,54.33,252.53Z"/><path class="cls-1" d="M189.28,678.6c-1,.69-1.22.06-1.23-.77,0-2.14-.07-4.28-.05-6.43,0-1.55-1-.78-1.71-.83a33.74,33.74,0,0,0,.94-10.26c.41-.67,0-1.68.76-2.19,1,.16.85.81.68,1.35-.77,2.47-.34,5-.42,7.49a1.8,1.8,0,0,0,1.45,2.1A24.15,24.15,0,0,0,189.28,678.6Z"/><path class="cls-1" d="M162.12,633.81c-.1-.43-.19-.86-.28-1.29a21.88,21.88,0,0,0,6.14-.62c1-.16,1.21-.55.64-1.43-.43-.66-.15-1.25.62-1.23s2.6,0,2.21.7c-.62,1,.7,3.2-1.68,3.25-1,0-1.93.2-2.89.31s-2.23-.38-3.22.39A2,2,0,0,0,162.12,633.81Z"/><path class="cls-1" d="M190.34,664c-1-.49-.68-1.39-.67-2.17a25.18,25.18,0,0,0-.83-7.33c.84-.73-.2-2.91,1.55-2.62,1.15.19.6,1.87.56,2.85C190.83,657.78,190.56,660.86,190.34,664Z"/><path class="cls-1" d="M136.21,642.07c-2.82-.64-5.64-1.28-8.46-1.94-.21,0-.37-.29-.69-.56,4.21.94,8.43,1,12.39,2.45C138.39,643.26,137.29,641.8,136.21,642.07Z"/><path class="cls-1" d="M87.39,154.22l-.92.23c-.52-2.36,0-4.65.4-7.17,1.5.54.78,1.7,1.06,2.44-.26.17-.44.37-.29.71A7.4,7.4,0,0,0,87.39,154.22Z"/><path class="cls-1" d="M107.14,635.43c.65-1.74,1.8-1.3,2.84-1.28s1.85-.6,3.33-.12C111.11,635.25,108.87,634.36,107.14,635.43Z"/><path class="cls-1" d="M19.72,595.57l-1.11.1-.15-9.27h.88A28.82,28.82,0,0,0,19.72,595.57Z"/><path class="cls-1" d="M155.41,403.93l1,.13c-.9,1.63-.31,3.47-1,5.18Z"/><path class="cls-1" d="M156,372.87c1.61,1.78.16,4,.78,5.87a1.84,1.84,0,0,0-.12,1.47l-.45.59Z"/><path class="cls-1" d="M90.29,134.36c-.05.61-.31.95-.89.84a.66.66,0,0,1-.52-.77c.05-.5.28-1,.76-1.06S90.24,134,90.29,134.36Z"/><path class="cls-1" d="M150,53.73c-.13-.84-1-1.72.1-2.52.18.63.38,1.26.53,1.89S150.62,54,150,53.73Z"/><path class="cls-1" d="M60.15,258l1,.05c0,.35,0,.72-.09,1.07s-.19,1.09-.79.95c-.86-.2-.59-.84-.33-1.4A6.16,6.16,0,0,0,60.15,258Z"/><path class="cls-1" d="M135.72,149.63c-.14.14-.33.44-.39.41-.37-.15-.28-.5-.24-.81s.25-.42.45-.21S135.66,149.42,135.72,149.63Z"/><path class="cls-1" d="M156,413.84l-.68-.17a3.2,3.2,0,0,1,.43-1.94C155.84,412.5,155.92,413.17,156,413.84Z"/><path class="cls-1" d="M89.88,130.47v-.3a1.19,1.19,0,0,0-.18.33,1,1,0,0,0,.06.32C89.8,130.72,89.83,130.61,89.88,130.47Z"/><path class="cls-1" d="M172.82,672.84l-.8,0,.06-3.08c.29-.48.65-.6,1.11-.23A6.48,6.48,0,0,0,172.82,672.84Z"/><path class="cls-1" d="M99.53,44.35c-.71-.14-1.76.93-2.06-.59l4.39-2.16a2.17,2.17,0,0,0,1.6-.71c2.73.86.26,1.35-.14,2a11.26,11.26,0,0,0-3.74,1.54Z"/><path class="cls-1" d="M119.27,46.42c-1.54.06-2.76-1.06-4.25-1.2,0-.37.08-.9.39-.83C116.86,44.73,118.53,44.73,119.27,46.42Z"/><path class="cls-1" d="M150.58,725.13c-.49-.61,2.41-1.16,0-1.82-.45-.13-.46-.58,0-.76a8.65,8.65,0,0,1,1.75-.45,1.25,1.25,0,0,1,1.26.53c.35.49,0,.94-.24,1.32a3.79,3.79,0,0,1-2.29,1.68C150.9,725.46,150.74,725.29,150.58,725.13Z"/><path class="cls-1" d="M39,729a5.54,5.54,0,0,1-2.24,2.26A2.33,2.33,0,0,1,39,729Z"/><path class="cls-1" d="M170.64,497.56l-.72-.47c-.51-2.8-1-5.6-1.52-8.4l.77-.16C170.41,491.37,170.5,494.47,170.64,497.56Z"/></svg>